HIERARCHY
ROOT Hips
{
 OFFSET 0.000000 0.000000 0.000000
 CHANNELS 6 Xposition Yposition Zposition Yrotation Xrotation Zrotation
 JOINT Chest
 {
  OFFSET 0.000000 9.585900 0.002600
  CHANNELS 3 Yrotation Xrotation Zrotation
  JOINT Chest2
  {
   OFFSET 0.000000 9.601200 -0.005300
   CHANNELS 3 Yrotation Xrotation Zrotation
   JOINT Chest3
   {
    OFFSET 0.000000 9.561800 0.000000
    CHANNELS 3 Yrotation Xrotation Zrotation
    JOINT Chest4
    {
     OFFSET 0.000000 9.552100 0.000000
     CHANNELS 3 Yrotation Xrotation Zrotation
     JOINT Neck
     {
      OFFSET 0.000000 14.453000 0.000000
      CHANNELS 3 Yrotation Xrotation Zrotation
      JOINT Head
      {
       OFFSET 0.000000 8.936500 -0.011300
       CHANNELS 3 Yrotation Xrotation Zrotation
       End Site
       {
        OFFSET 0.000000 17.073600 -0.006000
       }
      }
     }
     JOINT RightCollar
     {
      OFFSET -2.921100 9.558500 0.000000
      CHANNELS 3 Yrotation Xrotation Zrotation
      JOINT RightShoulder
      {
       OFFSET -13.519700 0.000000 0.000000
       CHANNELS 3 Yrotation Xrotation Zrotation
       JOINT RightElbow
       {
        OFFSET 0.000000 -29.696600 0.000000
        CHANNELS 3 Yrotation Xrotation Zrotation
        JOINT RightWrist
        {
         OFFSET 0.000000 -24.004700 0.000000
         CHANNELS 3 Yrotation Xrotation Zrotation
         End Site
         {
          OFFSET 0.000000 -17.728500 0.000000
         }
        }
       }
      }
     }
     JOINT LeftCollar
     {
      OFFSET 2.921100 9.558500 0.000000
      CHANNELS 3 Yrotation Xrotation Zrotation
      JOINT LeftShoulder
      {
       OFFSET 13.519700 0.000000 0.000000
       CHANNELS 3 Yrotation Xrotation Zrotation
       JOINT LeftElbow
       {
        OFFSET 0.000000 -29.696600 0.000000
        CHANNELS 3 Yrotation Xrotation Zrotation
        JOINT LeftWrist
        {
         OFFSET 0.000000 -24.004700 0.000000
         CHANNELS 3 Yrotation Xrotation Zrotation
         End Site
         {
          OFFSET 0.000000 -17.728500 0.000000
         }
        }
       }
      }
     }
    }
   }
  }
 }
 JOINT RightHip
 {
  OFFSET -7.771700 -0.012900 -0.001300
  CHANNELS 3 Yrotation Xrotation Zrotation
  JOINT RightKnee
  {
   OFFSET 0.000000 -40.869800 0.001200
   CHANNELS 3 Yrotation Xrotation Zrotation
   JOINT RightAnkle
   {
    OFFSET 0.000000 -39.717900 0.002100
    CHANNELS 3 Yrotation Xrotation Zrotation
    JOINT RightToe
    {
     OFFSET 0.000000 -4.965400 11.033500
     CHANNELS 3 Yrotation Xrotation Zrotation
     End Site
     {
      OFFSET 0.000000 -1.423100 5.872300
     }
    }
   }
  }
 }
 JOINT LeftHip
 {
  OFFSET 7.771700 -0.012900 -0.001300
  CHANNELS 3 Yrotation Xrotation Zrotation
  JOINT LeftKnee
  {
   OFFSET 0.000000 -40.869800 0.001200
   CHANNELS 3 Yrotation Xrotation Zrotation
   JOINT LeftAnkle
   {
    OFFSET 0.000000 -39.717900 0.002100
    CHANNELS 3 Yrotation Xrotation Zrotation
    JOINT LeftToe
    {
     OFFSET 0.000000 -4.965400 11.033500
     CHANNELS 3 Yrotation Xrotation Zrotation
     End Site
     {
      OFFSET 0.000000 -1.423100 5.872300
     }
    }
   }
  }
 }
}
MOTION
Frames: 8
Frame Time: 0.008333
-224.640883 57.787792 25.001123 174.937844 -49.432493 -3.534063 5.008570 22.256215 3.343052 2.592066 12.750060 1.681173 3.309086 15.898452 2.210193 2.595800 12.759739 1.679518 0.450410 14.273220 3.504690 -0.474162 -9.301476 6.287733 2.299989 2.794770 1.357265 1.367879 -15.272757 -10.561641 -33.717060 -14.643410 103.425167 -18.532796 -10.618714 -32.609777 -10.458676 0.083341 -0.769848 3.354918 -13.064277 13.440714 29.971841 -23.890506 -95.944668 18.892530 -4.152375 16.495820 5.974268 -22.475155 -0.911435 -42.616942 72.338132 -45.913742 4.303681 -13.156316 12.210843 -0.008945 -0.125436 0.015297 -8.187148 -21.464020 8.474775 59.923432 77.684381 59.303122 6.033992 -14.907414 -19.506375 0.073238 0.096981 0.027718
-224.640055 57.786026 25.000962 174.930887 -49.424629 -3.525957 5.014004 22.259310 3.340497 2.593515 12.748878 1.680377 3.319543 15.912760 2.208686 2.600001 12.776784 1.680549 0.444419 14.209163 3.420431 -0.483649 -9.373104 6.264694 2.282321 2.748462 1.368718 1.400337 -15.250473 -10.598315 -33.791798 -14.749609 103.501422 -18.481692 -10.377251 -32.547273 -10.462769 0.071374 -0.757256 3.385382 -13.053500 13.406399 30.235518 -24.313237 -96.029716 18.871496 -4.042627 16.487625 5.977588 -22.484733 -0.914217 -42.625319 72.337824 -45.923485 4.304779 -13.160440 12.209259 -0.009845 -0.123769 0.012549 -8.177622 -21.475298 8.472438 59.929249 77.685650 59.315284 6.033582 -14.904891 -19.508768 0.075820 0.096529 0.030925
-224.636247 57.784905 25.001324 174.968243 -49.418821 -3.570649 4.998460 22.267698 3.359816 2.593986 12.745902 1.678146 3.325726 15.931537 2.206887 2.606534 12.787831 1.684483 0.437327 14.157654 3.381331 -0.480349 -9.452773 6.191750 2.266291 2.703868 1.375462 1.433994 -15.224359 -10.628705 -33.877110 -14.867024 103.584211 -18.416909 -10.123061 -32.487148 -10.464961 0.063317 -0.748474 3.398812 -13.064596 13.385447 30.539299 -24.761979 -96.123678 18.875122 -3.977678 16.506689 5.943008 -22.491743 -0.895949 -42.630204 72.335209 -45.930222 4.300568 -13.190920 12.208454 -0.014026 -0.095196 0.006025 -8.211553 -21.480020 8.492818 59.949369 77.686681 59.336922 6.039268 -14.875616 -19.505979 0.052536 0.072436 0.022579
-224.635396 57.784205 25.001390 174.967235 -49.418350 -3.569991 5.002456 22.281413 3.361882 2.599276 12.763605 1.681447 3.327511 15.927649 2.207874 2.605636 12.783001 1.681709 0.431331 14.128610 3.361561 -0.472513 -9.529224 6.101153 2.256077 2.674260 1.387712 1.463037 -15.191664 -10.663610 -33.961110 -14.971528 103.675982 -18.312858 -9.864851 -32.448234 -10.462489 0.072253 -0.748225 3.452479 -13.032831 13.331688 30.845933 -25.346147 -96.232918 18.912260 -3.977755 16.580754 5.941913 -22.492468 -0.895527 -42.639856 72.332302 -45.939705 4.304356 -13.195116 12.202538 -0.019906 -0.093085 0.006604 -8.216173 -21.479886 8.496253 59.956426 77.687080 59.343331 6.029409 -14.876875 -19.509684 0.053136 0.072209 0.023914
-224.634975 57.783379 25.002013 174.963907 -49.416950 -3.567158 5.008040 22.285913 3.361910 2.597065 12.761127 1.682134 3.337546 15.950820 2.209215 2.602071 12.767048 1.682029 0.427208 14.110592 3.342823 -0.465835 -9.593453 6.016285 2.246245 2.658231 1.426359 1.495970 -15.148371 -10.739785 -34.064755 -15.097866 103.803988 -18.200743 -9.606770 -32.449577 -10.451838 0.150384 -0.752625 3.508909 -13.050400 13.274722 31.192365 -26.049985 -96.352664 18.984925 -4.053578 16.729754 5.943867 -22.494467 -0.896067 -42.645302 72.331263 -45.944320 4.302419 -13.198332 12.200229 -0.021400 -0.091274 0.004586 -8.217370 -21.481022 8.498241 59.956396 77.687450 59.342430 6.023466 -14.877798 -19.510200 0.054542 0.072437 0.023536
-224.634607 57.782455 25.003233 174.965706 -49.414206 -3.570188 5.010930 22.283720 3.364490 2.599095 12.767497 1.682379 3.334527 15.945777 2.210122 2.602488 12.767366 1.682234 0.426878 14.090801 3.304644 -0.465834 -9.636896 5.956975 2.243139 2.655488 1.443741 1.506089 -15.142524 -10.762803 -34.159425 -15.248975 103.900645 -18.084559 -9.349191 -32.487936 -10.441443 0.195077 -0.758146 3.566255 -13.034202 13.230601 31.606168 -26.878944 -96.464449 19.093160 -4.199922 16.947014 5.942351 -22.497171 -0.894523 -42.647125 72.325012 -45.945846 4.303611 -13.195736 12.198991 -0.017569 -0.090610 0.004126 -8.223104 -21.482668 8.502155 59.957388 77.689701 59.340409 6.025990 -14.881297 -19.509220 0.052030 0.076103 0.021639
-224.636468 57.782073 25.004022 174.925517 -49.418379 -3.529753 5.035856 22.281633 3.354367 2.601939 12.773912 1.684283 3.336100 15.944302 2.212177 2.603708 12.766195 1.683818 0.415076 14.041607 3.233207 -0.470261 -9.642872 5.934524 2.235040 2.656647 1.449835 1.534598 -15.121465 -10.792585 -34.307161 -15.438267 104.025289 -17.964520 -9.088063 -32.555195 -10.442786 0.219640 -0.762630 3.642786 -12.988580 13.187649 32.091356 -27.854948 -96.550216 19.209335 -4.394379 17.206260 5.973240 -22.491922 -0.908386 -42.620784 72.325805 -45.919325 4.325530 -13.174226 12.192999 -0.036649 -0.113979 0.003888 -8.201216 -21.478802 8.492188 59.973856 77.679186 59.357157 6.002118 -14.909705 -19.525106 0.076859 0.101223 0.033846
-224.636645 57.781898 25.005281 174.926620 -49.422251 -3.532784 5.040267 22.276133 3.355434 2.599602 12.772992 1.687561 3.338442 15.926001 2.204525 2.601751 12.764140 1.686303 0.411855 14.039904 3.204458 -0.468956 -9.670348 5.880406 2.229538 2.692129 1.479755 1.590788 -15.079172 -10.856101 -34.514129 -15.666703 104.194154 -17.843006 -8.815003 -32.631461 -10.438705 0.273520 -0.764460 3.731837 -12.932194 13.144155 32.651554 -28.978443 -96.596064 19.295981 -4.611777 17.486021 5.975847 -22.489992 -0.907521 -42.612980 72.327866 -45.909464 4.325759 -13.171066 12.193545 -0.027431 -0.117538 0.001308 -8.209265 -21.473037 8.495380 59.973505 77.677298 59.352093 6.006821 -14.910117 -19.527394 0.074306 0.105093 0.034834
